<svg fill="none" height="48" viewBox="0 0 48 48" width="48" xmlns="http://www.w3.org/2000/svg" xmlns:xlink="http://www.w3.org/1999/xlink"><clipPath id="a"><path d="m0 0h48v48h-48z"/></clipPath><g clip-path="url(#a)"><path d="m15 17.5v-9.23241c0-.16718.0836-.32329.2227-.41603l8.4999-5.66666c.168-.11197.3868-.11197.5548 0l8.4999 5.66666c.1392.09274.2227.24885.2227.41603v9.23241c0 .2761.2239.5.5.5h3c.2761 0 .5.2239.5.5v5c0 .2761-.2239.5-.5.5h-2.9055c-.3104 0-.5458.2799-.4926.5857l3.7962 22.8286c.0532.3058-.1822.5857-.4926.5857h-24.811c-.3104 0-.5458-.2799-.4926-.5857l3.7962-22.8286c.0532-.3058-.1822-.5857-.4926-.5857h-2.9055c-.2761 0-.5-.2239-.5-.5v-5c0-.2761.2239-.5.5-.5h3c.2761 0 .5-.2239.5-.5z" fill="#f63"/><g fill="#fff" opacity=".4"><path d="m21.0696 48h-9.4752c-.3104 0-.5458-.2799-.4926-.5857l.563-3.3851 22.7766-11.3883 1.3316 8.0074z"/><path d="m31.0575 24-17.5186 8.7593 1.3592-8.1736c.0531-.3052-.1812-.5845-.4906-.5857z"/></g><path d="m20 10.5c0-.2761.2239-.5.5-.5h7c.2761 0 .5.2239.5.5v7c0 .2761-.2239.5-.5.5h-7c-.2761 0-.5-.2239-.5-.5z" fill="#ff3"/></g></svg>