<svg fill="none" height="128" viewBox="0 0 128 128" width="128" xmlns="http://www.w3.org/2000/svg" xmlns:xlink="http://www.w3.org/1999/xlink"><mask id="a" height="120" maskUnits="userSpaceOnUse" width="120" x="4" y="4"><path d="m64 124c33.1371 0 60-26.8629 60-60s-26.8629-60-60-60-60 26.8629-60 60 26.8629 60 60 60z" fill="#0535c1"/></mask><g mask="url(#a)"><path d="m64 124c33.1371 0 60-26.8629 60-60s-26.8629-60-60-60-60 26.8629-60 60 26.8629 60 60 60z" fill="#06f"/><path d="m94 60.25c-5.5228 0-10-4.4772-10-10s4.4772-10 10-10c5.207 0 9.484 3.9797 9.957 9.0634.048.5155.463.9366.981.9366h4.062c2.761 0 5 2.2386 5 5s-2.239 5-5 5z" fill="#5dbceb"/><path d="m63.5031 14.3105-19.0625 11.9141c-.2741.1713-.4406.4718-.4406.795v19.7929c0 .5177-.4197.9375-.9375.9375h-8.125c-.5178 0-.9375.4197-.9375.9375v10.625c0 .5177.4197.9375.9375.9375h7.9893c.5678 0 1.0053.5008.929 1.0634l-9.7116 71.6236c-.0763.562.3612 1.063.929 1.063h57.8536c.5678 0 1.0053-.501.929-1.063l-9.7116-71.6236c-.0763-.5626.3612-1.0634.929-1.0634h7.9893c.5178 0 .9375-.4198.9375-.9375v-10.625c0-.5178-.4197-.9375-.9375-.9375h-8.125c-.5178 0-.9375-.4198-.9375-.9375v-19.7929c0-.3232-.1665-.6237-.4406-.795l-19.0625-11.9141c-.304-.19-.6898-.19-.9938 0z" fill="#f63"/><g fill="#ffa385"><path d="m36.3151 116.926 2.6426-19.4889 46.9047-23.4523 2.307 17.0145z"/><path d="m82.168 134h-36.3361l45.1098-22.555 2.3071 17.015z"/><path d="m69.668 60.25-27.5348 13.7674 1.8668-13.7674z"/></g><path d="m56.5 34c0-.6904.5596-1.25 1.25-1.25h12.5c.6904 0 1.25.5596 1.25 1.25v12.5c0 .6904-.5596 1.25-1.25 1.25h-12.5c-.6904 0-1.25-.5596-1.25-1.25z" fill="#ff3"/><path d="m24 74c-5.5228 0-10-4.4772-10-10s4.4772-10 10-10c3.7473 0 7.0132 2.0612 8.7258 5.1116.3739.6661 1.0472 1.1384 1.8111 1.1384h9.4631c3.797 0 6.875 3.078 6.875 6.875s-3.078 6.875-6.875 6.875z" fill="#fff"/></g></svg>