<svg fill="none" xmlns="http://www.w3.org/2000/svg" viewBox="0 0 241 240">
  <g clip-path="url(#a)">
    <rect x=".5" width="240" height="240" rx="120" fill="#fff"/>
    <rect x="42.5" width="24" height="240" rx="12" fill="#F1F3F4"/>
    <circle cx="54.5" cy="120" r="16" fill="#fff" stroke="#1A73E8" stroke-width="4"/>
    <path fill="#DADCE0" d="M52.5-4h4V96h-4zM52.5 144h4v100h-4z"/>
    <rect x="82.5" y="80" width="120" height="80" rx="6" fill="#DEF"/>
    <path d="M82.5 86a6 6 0 0 1 6-6h108a6 6 0 0 1 6 6v14h-120V86Z" fill="#BDF"/>
    <circle cx="93.5" cy="90" r="3" fill="#fff"/>
    <circle cx="105.5" cy="90" r="3" fill="#fff"/>
    <circle cx="117.5" cy="90" r="3" fill="#fff"/>
    <rect x="168.5" y="126" width="48" height="48" rx="24" fill="#fff"/>
    <g clip-path="url(#b)">
      <circle cx="192.5" cy="150" r="20" fill="#0DCE6B" fill-opacity=".08"/>
      <circle cx="192.5" cy="150" r="20" stroke="#0DCE6B"/>
      <mask id="c" fill="#fff">
        <path d="M192.5 131c0-.552.448-1.003 1-.975a20 20 0 1 1-5.725.541.963.963 0 0 1 1.165.771c.103.542-.254 1.063-.79 1.196a18.002 18.002 0 0 0-6.794 31.603 18 18 0 1 0 12.144-32.108c-.552-.031-1-.476-1-1.028Z"/>
      </mask>
      <path d="M192.5 131c0-.552.448-1.003 1-.975a20 20 0 1 1-5.725.541.963.963 0 0 1 1.165.771v0c.103.542-.254 1.063-.79 1.196a18.002 18.002 0 0 0-6.794 31.603 18 18 0 1 0 12.144-32.108c-.552-.031-1-.476-1-1.028v0Z" stroke="#0DCE6B" stroke-width="6" stroke-linecap="round" stroke-linejoin="round" mask="url(#c)"/>
      <path d="m187.737 155.288-1.344-.928 1.248-1.76 1.248-1.76-.064-.064a1.918 1.918 0 0 1-.496.208c-.192.043-.4.064-.624.064a3.216 3.216 0 0 1-1.616-.448 3.772 3.772 0 0 1-1.264-1.264c-.33-.533-.496-1.147-.496-1.84 0-.683.176-1.301.528-1.856a3.913 3.913 0 0 1 1.392-1.344 3.693 3.693 0 0 1 1.872-.496c.598 0 1.131.112 1.6.336.48.213.891.496 1.232.848.672.715 1.008 1.568 1.008 2.56a4.3 4.3 0 0 1-.432 1.92 12.3 12.3 0 0 1-1.04 1.776c-.458.672-.917 1.349-1.376 2.032a109.29 109.29 0 0 1-1.376 2.016Zm.416-5.712c.374 0 .72-.091 1.04-.272.32-.181.576-.427.768-.736.203-.32.304-.683.304-1.088a1.96 1.96 0 0 0-.288-1.056 2.038 2.038 0 0 0-.784-.752 2.076 2.076 0 0 0-1.04-.272c-.384 0-.736.091-1.056.272-.32.181-.576.432-.768.752a1.96 1.96 0 0 0-.288 1.056c0 .405.096.768.288 1.088.203.309.464.555.784.736.32.181.667.272 1.04.272Zm7.286 5.68-1.488-.8c.8-1.451 1.605-2.901 2.416-4.352a1735.51 1735.51 0 0 0 2.416-4.368l-.032-.048h-5.328v-1.632h7.248v1.728l-2.624 4.736c-.864 1.579-1.733 3.157-2.608 4.736Z" fill="#1E8E3E"/>
    </g>
    <circle cx="142.5" cy="130" r="16" fill="#7CB1F3"/>
    <path d="m150.63 123.41-1.41-1.41-9.19 9.19-4.25-4.24-1.41 1.41 5.66 5.66 10.6-10.61ZM149.5 136h-14v2h14v-2Z" fill="#fff"/>
    <path d="m107 73.5-8.5-14M127 167l-8 14.5" stroke="#000" stroke-dasharray="2 2"/>
    <path d="M85.5 51a8 8 0 1 1 16 0 8 8 0 1 1-16 0Z" fill="#fff"/>
    <circle cx="93.5" cy="51" r="5" fill="#0CCE6A"/>
    <path d="M105.5 190a8 8 0 0 1 16 0 8 8 0 0 1-16 0Z" fill="#fff"/>
    <path fill="#FFA400" d="M109 185.5h9v9h-9z"/>
    <path d="m171.5 73.5 5-9" stroke="#000" stroke-dasharray="2 2"/>
    <path d="M172.5 54a8 8 0 0 1 16 0 8 8 0 0 1-16 0Z" fill="#fff"/>
    <path d="m180.5 48.5 6 10h-12l6-10Z" fill="#FF4E43"/>
    <path d="m223.129 138.045-4.734 1.108m-1.687-12.864-4.199 3.631m-6.221-11.89-.886 4.707" stroke="#3C4043" stroke-dasharray="2 2"/>
  </g>
  <defs>
    <clipPath id="a">
      <rect x=".5" width="240" height="240" rx="120" fill="#fff"/>
    </clipPath>
    <clipPath id="b">
      <path fill="#fff" transform="translate(172.5 130)" d="M0 0h40v40H0z"/>
    </clipPath>
  </defs>
</svg>
