<svg fill="none" xmlns="http://www.w3.org/2000/svg" viewBox="0 0 241 240">
  <rect x=".5" width="240" height="240" rx="120" fill="#fff"/>
  <circle cx="30.5" cy="106" r="11.5" stroke="#3C4043" stroke-dasharray="2 2"/>
  <path d="M30.5 100v6m0 6v-6m0 0h-6 12" stroke="#3C4043"/>
  <rect x="42.5" width="24" height="240" rx="12" fill="#F1F3F4"/>
  <path fill="#DADCE0" d="M52.5 60h4v120h-4z"/>
  <path d="M33.5 120c0-11.598 9.402-21 21-21s21 9.402 21 21-9.402 21-21 21-21-9.402-21-21Z" fill="#fff"/>
  <path fill-rule="evenodd" clip-rule="evenodd" d="m58.438 102.955-.14-.07-.018.035a17.965 17.965 0 0 0-3.78-.42c-9.66 0-17.5 7.84-17.5 17.5s7.84 17.5 17.5 17.5S72 129.66 72 120c0-8.312-5.793-15.26-13.563-17.045Zm9.03 11.795H53.484l4.742-8.225c4.2 1.155 7.613 4.235 9.24 8.225Zm-11.043-8.61c-.63-.088-1.277-.14-1.925-.14-3.815 0-7.28 1.54-9.8 4.025l4.76 8.225 6.965-12.11Zm-12.95 5.268 4.97 8.592 2.013 3.5h-9.503a14.42 14.42 0 0 1-.455-3.5c0-3.238 1.12-6.212 2.975-8.592Zm-1.943 13.842a14.059 14.059 0 0 0 9.223 8.225l4.742-8.225H41.532Zm11.043 8.592 6.982-12.092 4.76 8.225C61.78 132.46 58.315 134 54.5 134c-.665 0-1.295-.07-1.925-.158Zm5.95-17.342 7 12.092c1.855-2.38 2.975-5.354 2.975-8.592 0-1.208-.175-2.38-.472-3.5h-9.503Z" fill="#1A73E8"/>
  <path fill="#DADCE0" d="M52.5 0h4v28h-4zM52.5 212h4v28h-4z"/>
  <circle cx="54.5" cy="44" r="10" fill="#fff" stroke="#DADCE0" stroke-width="4"/>
  <circle cx="54.5" cy="196" r="10" fill="#fff" stroke="#DADCE0" stroke-width="4"/>
  <rect x="82.5" y="80" width="120" height="80" rx="6" fill="#DEF"/>
  <path d="M82.5 86a6 6 0 0 1 6-6h108a6 6 0 0 1 6 6v14h-120V86Z" fill="#BDF"/>
  <circle cx="93.5" cy="90" r="3" fill="#fff"/>
  <circle cx="105.5" cy="90" r="3" fill="#fff"/>
  <circle cx="117.5" cy="90" r="3" fill="#fff"/>
  <circle cx="142.5" cy="130" r="16" fill="#7CB1F3"/>
  <path fill-rule="evenodd" clip-rule="evenodd" d="M138.14 132.36c-.5-.23-1.05-.36-1.64-.36-2.21 0-4 1.79-4 4s1.79 4 4 4 4-1.79 4-4c0-.59-.13-1.14-.36-1.64l2.36-2.36 2.36 2.36c-.23.5-.36 1.05-.36 1.64 0 2.21 1.79 4 4 4s4-1.79 4-4-1.79-4-4-4c-.59 0-1.14.13-1.64.36L144.5 130l7-7v-3h-1l-12.36 12.36Zm.36 3.64a2 2 0 1 1-3.999.001A2 2 0 0 1 138.5 136Zm10 2a2 2 0 1 0 .001-3.999A2 2 0 0 0 148.5 138Zm-5.5-8c0 .28-.22.5-.5.5s-.5-.22-.5-.5.22-.5.5-.5.5.22.5.5Zm-3.5-1-6-6v-3h1l7 7-2 2Z" fill="#fff"/>
  <path d="M92.5 120v-10h15m-15 30v10h15m70 0h15v-10m0-20v-10h-15" stroke="#BDF" stroke-width="4" stroke-linejoin="round"/>
  <path d="m107 73.5-8.5-14M127 167l-8 14.5" stroke="#3C4043" stroke-dasharray="2 2"/>
  <path d="M85.5 51a8 8 0 1 1 16 0 8 8 0 1 1-16 0Z" fill="#fff"/>
  <circle cx="93.5" cy="51" r="5" fill="#0CCE6A"/>
  <path d="M105.5 190a8 8 0 0 1 16 0 8 8 0 0 1-16 0Z" fill="#fff"/>
  <path fill="#FFA400" d="M109 185.5h9v9h-9z"/>
  <path d="m171.5 73.5 5-9" stroke="#3C4043" stroke-dasharray="2 2"/>
  <path d="M172.5 54a8 8 0 0 1 16 0 8 8 0 0 1-16 0Z" fill="#fff"/>
  <path d="m180.5 48.5 6 10h-12l6-10Z" fill="#FF4E43"/>
</svg>
