<svg fill="none" xmlns="http://www.w3.org/2000/svg" viewBox="0 0 241 240">
  <rect x=".5" width="240" height="240" rx="120" fill="#fff"/>
  <rect x="42.5" width="24" height="240" rx="12" fill="#F1F3F4"/>
  <path fill="#1A73E8" d="M52.5 60h4v120h-4z"/>
  <path fill="#DADCE0" d="M52.5 0h4v28h-4zM52.5 212h4v28h-4z"/>
  <circle cx="54.5" cy="44" r="10" fill="#fff" stroke="#DADCE0" stroke-width="4"/>
  <circle cx="54.5" cy="196" r="10" fill="#fff" stroke="#DADCE0" stroke-width="4"/>
  <path d="M30.854 60.646a.5.5 0 0 0-.708 0l-3.181 3.182a.5.5 0 1 0 .707.707l2.828-2.828 2.828 2.828a.5.5 0 1 0 .707-.707l-3.181-3.182Zm-.708 118.708a.5.5 0 0 0 .708 0l3.181-3.182a.501.501 0 0 0-.707-.708l-2.828 2.829-2.828-2.829a.5.5 0 0 0-.707.708l3.181 3.182ZM30 61v.983h1V61h-1Zm0 2.95v1.967h1V63.95h-1Zm0 3.933v1.967h1v-1.967h-1Zm0 3.934v1.966h1v-1.966h-1Zm0 3.933v1.967h1V75.75h-1Zm0 3.933v1.967h1v-1.967h-1Zm0 3.934v1.966h1v-1.966h-1Zm0 3.933v1.967h1V87.55h-1Zm0 3.933v1.967h1v-1.967h-1Zm0 3.934v1.966h1v-1.966h-1Zm0 3.933v1.967h1V99.35h-1Zm0 3.933v1.967h1v-1.967h-1Zm0 3.934v1.966h1v-1.966h-1Zm0 3.933v1.967h1v-1.967h-1Zm0 3.933v1.967h1v-1.967h-1Zm0 3.934v1.966h1v-1.966h-1Zm0 3.933v1.967h1v-1.967h-1Zm0 3.933v1.967h1v-1.967h-1Zm0 3.934v1.966h1v-1.966h-1Zm0 3.933v1.967h1v-1.967h-1Zm0 3.933v1.967h1v-1.967h-1Zm0 3.934v1.966h1v-1.966h-1Zm0 3.933v1.967h1v-1.967h-1Zm0 3.933v1.967h1v-1.967h-1Zm0 3.934v1.966h1v-1.966h-1Zm0 3.933v1.967h1v-1.967h-1Zm0 3.933v1.967h1v-1.967h-1Zm0 3.934v1.966h1v-1.966h-1Zm0 3.933v1.967h1v-1.967h-1Zm0 3.933v1.967h1v-1.967h-1Zm0 3.934V179h1v-.983h-1Z" fill="#3C4043"/>
  <rect x="82.5" y="80" width="120" height="80" rx="6" fill="#DEF"/>
  <path d="M82.5 86a6 6 0 0 1 6-6h108a6 6 0 0 1 6 6v14h-120V86Z" fill="#BDF"/>
  <circle cx="93.5" cy="90" r="3" fill="#fff"/>
  <circle cx="105.5" cy="90" r="3" fill="#fff"/>
  <circle cx="117.5" cy="90" r="3" fill="#fff"/>
  <path opacity=".5" d="M104.899 119.228c-1.794 5.008-3.292 16.366 5.065 21.737 10.447 6.712 38.172-15.604 25.51-25.194-12.663-9.59-26.46 22.636-11.264 28.07 12.156 4.348 26.592-4.581 32.29-9.589" stroke="#1A73E8" stroke-dasharray="2 2"/>
  <g opacity=".5" fill="#1A73E8">
    <path d="M166.833 111h2.667v4h-2.667v-4Zm-10.666 12v-2.667h4V123h-4Zm9.333-4c1.133 4.133 2.867 9.2 4 13.333l1.653-5 6.347 6.334 2.667-2.667-6.267-6.267 4.933-1.733c-4.133-1.133-9.2-2.8-13.333-4ZM161.66 125.667l1.88 1.88-2.827 2.826-1.88-1.88 2.827-2.826Zm-2.827-10.827 1.88-1.88 2.827 2.827-1.88 1.88-2.827-2.827Zm16.787-1.893 1.88 1.88a591.696 591.696 0 0 1-2.827 2.84l-1.88-1.88c1.36-1.374 1.454-1.467 2.827-2.84Z"/>
  </g>
  <path d="m107 73.5-8.5-14M127 167l-8 14.5" stroke="#3C4043" stroke-dasharray="2 2"/>
  <path d="M85.5 51a8 8 0 1 1 16 0 8 8 0 1 1-16 0Z" fill="#fff"/>
  <circle cx="93.5" cy="51" r="5" fill="#0CCE6A"/>
  <path d="M105.5 190a8 8 0 0 1 16 0 8 8 0 0 1-16 0Z" fill="#fff"/>
  <path fill="#FFA400" d="M109 185.5h9v9h-9z"/>
  <path d="m171.5 73.5 5-9" stroke="#3C4043" stroke-dasharray="2 2"/>
  <path d="M172.5 54a8 8 0 0 1 16 0 8 8 0 0 1-16 0Z" fill="#fff"/>
  <path d="m180.5 48.5 6 10h-12l6-10Z" fill="#FF4E43"/>
</svg>
